<svg xmlns="http://www.w3.org/2000/svg" xmlns:xlink="http://www.w3.org/1999/xlink" width="500" zoomAndPan="magnify" viewBox="0 0 375 374.999991" height="500" preserveAspectRatio="xMidYMid meet" version="1.0"><defs><filter x="0%" y="0%" width="100%" height="100%" id="5951fd41ba"><feColorMatrix values="0 0 0 0 1 0 0 0 0 1 0 0 0 0 1 0 0 0 1 0" color-interpolation-filters="sRGB"/></filter><g/><mask id="9145b9d7f2"><g filter="url(#5951fd41ba)"><rect x="-37.5" width="450" fill="#000000" y="-37.499999" height="449.999989" fill-opacity="0.14"/></g></mask><clipPath id="0a89f78c51"><path d="M 0.28125 0.199219 L 327.878906 0.199219 L 327.878906 327.800781 L 0.28125 327.800781 Z M 0.28125 0.199219 " clip-rule="nonzero"/></clipPath><clipPath id="97a3d9f4bc"><path d="M 151.785156 37.140625 C 157.152344 31.46875 161.332031 30.105469 164.136719 30.105469 C 166.945312 30.105469 171.125 31.46875 176.488281 37.140625 C 181.886719 42.847656 187.429688 51.902344 192.398438 64.324219 C 201.046875 85.941406 207.066406 115.539062 208.457031 149.105469 L 119.820312 149.105469 C 121.207031 115.539062 127.226562 85.941406 135.875 64.324219 C 140.84375 51.902344 146.390625 42.847656 151.785156 37.140625 Z M 90.046875 149.105469 C 91.445312 112.40625 97.996094 78.921875 108.253906 53.273438 C 110.15625 48.519531 112.21875 43.953125 114.441406 39.632812 C 69.511719 57.605469 36.59375 99.226562 31.078125 149.105469 Z M 31.078125 178.855469 L 90.046875 178.855469 C 91.445312 215.554688 97.996094 249.039062 108.253906 274.6875 C 110.15625 279.445312 112.21875 284.011719 114.441406 288.328125 C 69.511719 270.355469 36.59375 228.734375 31.078125 178.855469 Z M 0.511719 163.980469 C 0.511719 73.613281 73.769531 0.355469 164.136719 0.355469 C 254.503906 0.355469 327.761719 73.613281 327.761719 163.980469 C 327.761719 254.347656 254.503906 327.605469 164.136719 327.605469 C 73.769531 327.605469 0.511719 254.347656 0.511719 163.980469 Z M 297.195312 149.105469 C 291.683594 99.226562 258.765625 57.605469 213.832031 39.632812 C 216.058594 43.953125 218.117188 48.519531 220.019531 53.273438 C 230.28125 78.921875 236.828125 112.40625 238.230469 149.105469 Z M 238.230469 178.855469 L 297.195312 178.855469 C 291.683594 228.734375 258.765625 270.355469 213.832031 288.328125 C 216.058594 284.011719 218.117188 279.445312 220.019531 274.6875 C 230.28125 249.039062 236.828125 215.554688 238.230469 178.855469 Z M 208.457031 178.855469 C 207.066406 212.421875 201.046875 242.019531 192.398438 263.640625 C 187.429688 276.0625 181.886719 285.117188 176.488281 290.820312 C 171.125 296.496094 166.945312 297.855469 164.136719 297.855469 C 161.332031 297.855469 157.152344 296.496094 151.785156 290.820312 C 146.390625 285.117188 140.84375 276.0625 135.875 263.640625 C 127.226562 242.019531 121.207031 212.421875 119.820312 178.855469 Z M 208.457031 178.855469 " clip-rule="evenodd"/></clipPath><linearGradient x1="12" gradientTransform="matrix(14.874998, 0.000000000000000461, -0.000000000000000461, 14.874998, -14.362393, -14.518405)" y1="1" x2="12" gradientUnits="userSpaceOnUse" y2="23" id="29db610713"><stop stop-opacity="1" stop-color="rgb(8.999634%, 77.999878%, 100%)" offset="0"/><stop stop-opacity="1" stop-color="rgb(9.065247%, 77.789307%, 100%)" offset="0.00390625"/><stop stop-opacity="1" stop-color="rgb(9.130859%, 77.580261%, 100%)" offset="0.0078125"/><stop stop-opacity="1" stop-color="rgb(9.196472%, 77.36969%, 100%)" offset="0.0117188"/><stop stop-opacity="1" stop-color="rgb(9.263611%, 77.160645%, 100%)" offset="0.015625"/><stop stop-opacity="1" stop-color="rgb(9.329224%, 76.950073%, 100%)" offset="0.0195313"/><stop stop-opacity="1" stop-color="rgb(9.394836%, 76.741028%, 100%)" offset="0.0234375"/><stop stop-opacity="1" stop-color="rgb(9.460449%, 76.530457%, 100%)" offset="0.0273438"/><stop stop-opacity="1" stop-color="rgb(9.527588%, 76.321411%, 100%)" offset="0.03125"/><stop stop-opacity="1" stop-color="rgb(9.593201%, 76.11084%, 100%)" offset="0.0351563"/><stop stop-opacity="1" stop-color="rgb(9.658813%, 75.901794%, 100%)" offset="0.0390625"/><stop stop-opacity="1" stop-color="rgb(9.724426%, 75.691223%, 100%)" offset="0.0429688"/><stop stop-opacity="1" stop-color="rgb(9.791565%, 75.482178%, 100%)" offset="0.046875"/><stop stop-opacity="1" stop-color="rgb(9.857178%, 75.271606%, 100%)" offset="0.0507813"/><stop stop-opacity="1" stop-color="rgb(9.922791%, 75.062561%, 100%)" offset="0.0546875"/><stop stop-opacity="1" stop-color="rgb(9.988403%, 74.85199%, 100%)" offset="0.0585938"/><stop stop-opacity="1" stop-color="rgb(10.055542%, 74.642944%, 100%)" offset="0.0625"/><stop stop-opacity="1" stop-color="rgb(10.121155%, 74.432373%, 100%)" offset="0.0664062"/><stop stop-opacity="1" stop-color="rgb(10.186768%, 74.223328%, 100%)" offset="0.0703125"/><stop stop-opacity="1" stop-color="rgb(10.25238%, 74.012756%, 100%)" offset="0.0742188"/><stop stop-opacity="1" stop-color="rgb(10.319519%, 73.803711%, 100%)" offset="0.078125"/><stop stop-opacity="1" stop-color="rgb(10.385132%, 73.59314%, 100%)" offset="0.0820312"/><stop stop-opacity="1" stop-color="rgb(10.452271%, 73.384094%, 100%)" offset="0.0859375"/><stop stop-opacity="1" stop-color="rgb(10.517883%, 73.173523%, 100%)" offset="0.0898438"/><stop stop-opacity="1" stop-color="rgb(10.583496%, 72.964478%, 100%)" offset="0.09375"/><stop stop-opacity="1" stop-color="rgb(10.649109%, 72.753906%, 100%)" offset="0.0976562"/><stop stop-opacity="1" stop-color="rgb(10.716248%, 72.544861%, 100%)" offset="0.101562"/><stop stop-opacity="1" stop-color="rgb(10.78186%, 72.33429%, 100%)" offset="0.105469"/><stop stop-opacity="1" stop-color="rgb(10.847473%, 72.125244%, 100%)" offset="0.109375"/><stop stop-opacity="1" stop-color="rgb(10.913086%, 71.914673%, 100%)" offset="0.113281"/><stop stop-opacity="1" stop-color="rgb(10.980225%, 71.705627%, 100%)" offset="0.117188"/><stop stop-opacity="1" stop-color="rgb(11.045837%, 71.495056%, 100%)" offset="0.121094"/><stop stop-opacity="1" stop-color="rgb(11.11145%, 71.286011%, 100%)" offset="0.125"/><stop stop-opacity="1" stop-color="rgb(11.177063%, 71.076965%, 100%)" offset="0.128906"/><stop stop-opacity="1" stop-color="rgb(11.244202%, 70.86792%, 100%)" offset="0.132813"/><stop stop-opacity="1" stop-color="rgb(11.309814%, 70.657349%, 100%)" offset="0.136719"/><stop stop-opacity="1" stop-color="rgb(11.375427%, 70.448303%, 100%)" offset="0.140625"/><stop stop-opacity="1" stop-color="rgb(11.44104%, 70.237732%, 100%)" offset="0.144531"/><stop stop-opacity="1" stop-color="rgb(11.508179%, 70.028687%, 100%)" offset="0.148438"/><stop stop-opacity="1" stop-color="rgb(11.573792%, 69.818115%, 100%)" offset="0.152344"/><stop stop-opacity="1" stop-color="rgb(11.639404%, 69.60907%, 100%)" offset="0.15625"/><stop stop-opacity="1" stop-color="rgb(11.705017%, 69.398499%, 100%)" offset="0.160156"/><stop stop-opacity="1" stop-color="rgb(11.772156%, 69.189453%, 100%)" offset="0.164063"/><stop stop-opacity="1" stop-color="rgb(11.837769%, 68.978882%, 100%)" offset="0.167969"/><stop stop-opacity="1" stop-color="rgb(11.903381%, 68.769836%, 100%)" offset="0.171875"/><stop stop-opacity="1" stop-color="rgb(11.968994%, 68.559265%, 100%)" offset="0.175781"/><stop stop-opacity="1" stop-color="rgb(12.036133%, 68.35022%, 100%)" offset="0.179688"/><stop stop-opacity="1" stop-color="rgb(12.101746%, 68.139648%, 100%)" offset="0.183594"/><stop stop-opacity="1" stop-color="rgb(12.167358%, 67.930603%, 100%)" offset="0.1875"/><stop stop-opacity="1" stop-color="rgb(12.232971%, 67.720032%, 100%)" offset="0.191406"/><stop stop-opacity="1" stop-color="rgb(12.30011%, 67.510986%, 100%)" offset="0.195313"/><stop stop-opacity="1" stop-color="rgb(12.365723%, 67.300415%, 100%)" offset="0.199219"/><stop stop-opacity="1" stop-color="rgb(12.431335%, 67.09137%, 100%)" offset="0.203125"/><stop stop-opacity="1" stop-color="rgb(12.496948%, 66.880798%, 100%)" offset="0.207031"/><stop stop-opacity="1" stop-color="rgb(12.564087%, 66.671753%, 100%)" offset="0.210938"/><stop stop-opacity="1" stop-color="rgb(12.6297%, 66.461182%, 100%)" offset="0.214844"/><stop stop-opacity="1" stop-color="rgb(12.696838%, 66.252136%, 100%)" offset="0.21875"/><stop stop-opacity="1" stop-color="rgb(12.762451%, 66.041565%, 100%)" offset="0.222656"/><stop stop-opacity="1" stop-color="rgb(12.828064%, 65.83252%, 100%)" offset="0.226563"/><stop stop-opacity="1" stop-color="rgb(12.893677%, 65.621948%, 100%)" offset="0.230469"/><stop stop-opacity="1" stop-color="rgb(12.960815%, 65.412903%, 100%)" offset="0.234375"/><stop stop-opacity="1" stop-color="rgb(13.026428%, 65.202332%, 100%)" offset="0.238281"/><stop stop-opacity="1" stop-color="rgb(13.092041%, 64.993286%, 100%)" offset="0.242188"/><stop stop-opacity="1" stop-color="rgb(13.157654%, 64.782715%, 100%)" offset="0.246094"/><stop stop-opacity="1" stop-color="rgb(13.224792%, 64.573669%, 100%)" offset="0.25"/><stop stop-opacity="1" stop-color="rgb(13.290405%, 64.363098%, 100%)" offset="0.253906"/><stop stop-opacity="1" stop-color="rgb(13.356018%, 64.154053%, 100%)" offset="0.257812"/><stop stop-opacity="1" stop-color="rgb(13.421631%, 63.943481%, 100%)" offset="0.261719"/><stop stop-opacity="1" stop-color="rgb(13.48877%, 63.734436%, 100%)" offset="0.265625"/><stop stop-opacity="1" stop-color="rgb(13.554382%, 63.525391%, 100%)" offset="0.269531"/><stop stop-opacity="1" stop-color="rgb(13.619995%, 63.316345%, 100%)" offset="0.273438"/><stop stop-opacity="1" stop-color="rgb(13.685608%, 63.105774%, 100%)" offset="0.277344"/><stop stop-opacity="1" stop-color="rgb(13.752747%, 62.896729%, 100%)" offset="0.28125"/><stop stop-opacity="1" stop-color="rgb(13.818359%, 62.686157%, 100%)" offset="0.285156"/><stop stop-opacity="1" stop-color="rgb(13.883972%, 62.477112%, 100%)" offset="0.289062"/><stop stop-opacity="1" stop-color="rgb(13.949585%, 62.266541%, 100%)" offset="0.292969"/><stop stop-opacity="1" stop-color="rgb(14.016724%, 62.057495%, 100%)" offset="0.296875"/><stop stop-opacity="1" stop-color="rgb(14.082336%, 61.846924%, 100%)" offset="0.300781"/><stop stop-opacity="1" stop-color="rgb(14.147949%, 61.637878%, 100%)" offset="0.304688"/><stop stop-opacity="1" stop-color="rgb(14.213562%, 61.427307%, 100%)" offset="0.308594"/><stop stop-opacity="1" stop-color="rgb(14.280701%, 61.218262%, 100%)" offset="0.3125"/><stop stop-opacity="1" stop-color="rgb(14.346313%, 61.00769%, 100%)" offset="0.316406"/><stop stop-opacity="1" stop-color="rgb(14.411926%, 60.798645%, 100%)" offset="0.320312"/><stop stop-opacity="1" stop-color="rgb(14.477539%, 60.588074%, 100%)" offset="0.324219"/><stop stop-opacity="1" stop-color="rgb(14.544678%, 60.379028%, 100%)" offset="0.328125"/><stop stop-opacity="1" stop-color="rgb(14.610291%, 60.168457%, 100%)" offset="0.332031"/><stop stop-opacity="1" stop-color="rgb(14.675903%, 59.959412%, 100%)" offset="0.335938"/><stop stop-opacity="1" stop-color="rgb(14.741516%, 59.74884%, 100%)" offset="0.339844"/><stop stop-opacity="1" stop-color="rgb(14.808655%, 59.539795%, 100%)" offset="0.34375"/><stop stop-opacity="1" stop-color="rgb(14.874268%, 59.329224%, 100%)" offset="0.347656"/><stop stop-opacity="1" stop-color="rgb(14.941406%, 59.120178%, 100%)" offset="0.351562"/><stop stop-opacity="1" stop-color="rgb(15.007019%, 58.909607%, 100%)" offset="0.355469"/><stop stop-opacity="1" stop-color="rgb(15.072632%, 58.700562%, 100%)" offset="0.359375"/><stop stop-opacity="1" stop-color="rgb(15.138245%, 58.48999%, 100%)" offset="0.363281"/><stop stop-opacity="1" stop-color="rgb(15.205383%, 58.280945%, 100%)" offset="0.367188"/><stop stop-opacity="1" stop-color="rgb(15.270996%, 58.070374%, 100%)" offset="0.371094"/><stop stop-opacity="1" stop-color="rgb(15.336609%, 57.861328%, 100%)" offset="0.375"/><stop stop-opacity="1" stop-color="rgb(15.402222%, 57.650757%, 100%)" offset="0.378906"/><stop stop-opacity="1" stop-color="rgb(15.46936%, 57.441711%, 100%)" offset="0.382812"/><stop stop-opacity="1" stop-color="rgb(15.534973%, 57.23114%, 100%)" offset="0.386719"/><stop stop-opacity="1" stop-color="rgb(15.600586%, 57.022095%, 100%)" offset="0.390625"/><stop stop-opacity="1" stop-color="rgb(15.666199%, 56.811523%, 100%)" offset="0.394531"/><stop stop-opacity="1" stop-color="rgb(15.733337%, 56.602478%, 100%)" offset="0.398438"/><stop stop-opacity="1" stop-color="rgb(15.79895%, 56.391907%, 100%)" offset="0.402344"/><stop stop-opacity="1" stop-color="rgb(15.864563%, 56.182861%, 100%)" offset="0.40625"/><stop stop-opacity="1" stop-color="rgb(15.930176%, 55.973816%, 100%)" offset="0.410156"/><stop stop-opacity="1" stop-color="rgb(15.997314%, 55.764771%, 100%)" offset="0.414062"/><stop stop-opacity="1" stop-color="rgb(16.062927%, 55.554199%, 100%)" offset="0.417969"/><stop stop-opacity="1" stop-color="rgb(16.12854%, 55.345154%, 100%)" offset="0.421875"/><stop stop-opacity="1" stop-color="rgb(16.194153%, 55.134583%, 100%)" offset="0.425781"/><stop stop-opacity="1" stop-color="rgb(16.261292%, 54.925537%, 100%)" offset="0.429688"/><stop stop-opacity="1" stop-color="rgb(16.326904%, 54.714966%, 100%)" offset="0.433594"/><stop stop-opacity="1" stop-color="rgb(16.392517%, 54.50592%, 100%)" offset="0.4375"/><stop stop-opacity="1" stop-color="rgb(16.45813%, 54.295349%, 100%)" offset="0.441406"/><stop stop-opacity="1" stop-color="rgb(16.525269%, 54.086304%, 100%)" offset="0.445312"/><stop stop-opacity="1" stop-color="rgb(16.590881%, 53.875732%, 100%)" offset="0.449219"/><stop stop-opacity="1" stop-color="rgb(16.656494%, 53.666687%, 100%)" offset="0.453125"/><stop stop-opacity="1" stop-color="rgb(16.722107%, 53.456116%, 100%)" offset="0.457031"/><stop stop-opacity="1" stop-color="rgb(16.789246%, 53.24707%, 100%)" offset="0.460938"/><stop stop-opacity="1" stop-color="rgb(16.854858%, 53.036499%, 100%)" offset="0.464844"/><stop stop-opacity="1" stop-color="rgb(16.920471%, 52.827454%, 100%)" offset="0.46875"/><stop stop-opacity="1" stop-color="rgb(16.986084%, 52.616882%, 100%)" offset="0.472656"/><stop stop-opacity="1" stop-color="rgb(17.053223%, 52.407837%, 100%)" offset="0.476562"/><stop stop-opacity="1" stop-color="rgb(17.118835%, 52.197266%, 100%)" offset="0.480469"/><stop stop-opacity="1" stop-color="rgb(17.184448%, 51.98822%, 100%)" offset="0.484375"/><stop stop-opacity="1" stop-color="rgb(17.250061%, 51.777649%, 100%)" offset="0.488281"/><stop stop-opacity="1" stop-color="rgb(17.3172%, 51.568604%, 100%)" offset="0.492188"/><stop stop-opacity="1" stop-color="rgb(17.382812%, 51.358032%, 100%)" offset="0.496094"/><stop stop-opacity="1" stop-color="rgb(17.449951%, 51.148987%, 100%)" offset="0.5"/><stop stop-opacity="1" stop-color="rgb(17.515564%, 50.938416%, 100%)" offset="0.503906"/><stop stop-opacity="1" stop-color="rgb(17.581177%, 50.72937%, 100%)" offset="0.507812"/><stop stop-opacity="1" stop-color="rgb(17.64679%, 50.518799%, 100%)" offset="0.511719"/><stop stop-opacity="1" stop-color="rgb(17.713928%, 50.309753%, 100%)" offset="0.515625"/><stop stop-opacity="1" stop-color="rgb(17.779541%, 50.099182%, 100%)" offset="0.519531"/><stop stop-opacity="1" stop-color="rgb(17.845154%, 49.890137%, 100%)" offset="0.523438"/><stop stop-opacity="1" stop-color="rgb(17.910767%, 49.679565%, 100%)" offset="0.527344"/><stop stop-opacity="1" stop-color="rgb(17.977905%, 49.47052%, 100%)" offset="0.53125"/><stop stop-opacity="1" stop-color="rgb(18.043518%, 49.259949%, 100%)" offset="0.535156"/><stop stop-opacity="1" stop-color="rgb(18.109131%, 49.050903%, 100%)" offset="0.539062"/><stop stop-opacity="1" stop-color="rgb(18.174744%, 48.841858%, 100%)" offset="0.542969"/><stop stop-opacity="1" stop-color="rgb(18.241882%, 48.632812%, 100%)" offset="0.546875"/><stop stop-opacity="1" stop-color="rgb(18.307495%, 48.422241%, 100%)" offset="0.550781"/><stop stop-opacity="1" stop-color="rgb(18.373108%, 48.213196%, 100%)" offset="0.554688"/><stop stop-opacity="1" stop-color="rgb(18.438721%, 48.002625%, 100%)" offset="0.558594"/><stop stop-opacity="1" stop-color="rgb(18.505859%, 47.793579%, 100%)" offset="0.5625"/><stop stop-opacity="1" stop-color="rgb(18.571472%, 47.583008%, 100%)" offset="0.566406"/><stop stop-opacity="1" stop-color="rgb(18.637085%, 47.373962%, 100%)" offset="0.570312"/><stop stop-opacity="1" stop-color="rgb(18.702698%, 47.163391%, 100%)" offset="0.574219"/><stop stop-opacity="1" stop-color="rgb(18.769836%, 46.954346%, 100%)" offset="0.578125"/><stop stop-opacity="1" stop-color="rgb(18.835449%, 46.743774%, 100%)" offset="0.582031"/><stop stop-opacity="1" stop-color="rgb(18.901062%, 46.534729%, 100%)" offset="0.585938"/><stop stop-opacity="1" stop-color="rgb(18.966675%, 46.324158%, 100%)" offset="0.589844"/><stop stop-opacity="1" stop-color="rgb(19.033813%, 46.115112%, 100%)" offset="0.59375"/><stop stop-opacity="1" stop-color="rgb(19.099426%, 45.904541%, 100%)" offset="0.597656"/><stop stop-opacity="1" stop-color="rgb(19.165039%, 45.695496%, 100%)" offset="0.601562"/><stop stop-opacity="1" stop-color="rgb(19.230652%, 45.484924%, 100%)" offset="0.605469"/><stop stop-opacity="1" stop-color="rgb(19.297791%, 45.275879%, 100%)" offset="0.609375"/><stop stop-opacity="1" stop-color="rgb(19.363403%, 45.065308%, 100%)" offset="0.613281"/><stop stop-opacity="1" stop-color="rgb(19.429016%, 44.856262%, 100%)" offset="0.617188"/><stop stop-opacity="1" stop-color="rgb(19.494629%, 44.645691%, 100%)" offset="0.621094"/><stop stop-opacity="1" stop-color="rgb(19.561768%, 44.436646%, 100%)" offset="0.625"/><stop stop-opacity="1" stop-color="rgb(19.62738%, 44.226074%, 100%)" offset="0.628906"/><stop stop-opacity="1" stop-color="rgb(19.694519%, 44.017029%, 100%)" offset="0.632812"/><stop stop-opacity="1" stop-color="rgb(19.760132%, 43.806458%, 100%)" offset="0.636719"/><stop stop-opacity="1" stop-color="rgb(19.825745%, 43.597412%, 100%)" offset="0.640625"/><stop stop-opacity="1" stop-color="rgb(19.891357%, 43.386841%, 100%)" offset="0.644531"/><stop stop-opacity="1" stop-color="rgb(19.958496%, 43.177795%, 100%)" offset="0.648438"/><stop stop-opacity="1" stop-color="rgb(20.024109%, 42.967224%, 100%)" offset="0.652344"/><stop stop-opacity="1" stop-color="rgb(20.089722%, 42.758179%, 100%)" offset="0.65625"/><stop stop-opacity="1" stop-color="rgb(20.155334%, 42.547607%, 100%)" offset="0.660156"/><stop stop-opacity="1" stop-color="rgb(20.222473%, 42.338562%, 100%)" offset="0.664062"/><stop stop-opacity="1" stop-color="rgb(20.288086%, 42.127991%, 100%)" offset="0.667969"/><stop stop-opacity="1" stop-color="rgb(20.353699%, 41.918945%, 100%)" offset="0.671875"/><stop stop-opacity="1" stop-color="rgb(20.419312%, 41.708374%, 100%)" offset="0.675781"/><stop stop-opacity="1" stop-color="rgb(20.48645%, 41.499329%, 100%)" offset="0.679688"/><stop stop-opacity="1" stop-color="rgb(20.552063%, 41.290283%, 100%)" offset="0.683594"/><stop stop-opacity="1" stop-color="rgb(20.617676%, 41.081238%, 100%)" offset="0.6875"/><stop stop-opacity="1" stop-color="rgb(20.683289%, 40.870667%, 100%)" offset="0.691406"/><stop stop-opacity="1" stop-color="rgb(20.750427%, 40.661621%, 100%)" offset="0.695312"/><stop stop-opacity="1" stop-color="rgb(20.81604%, 40.45105%, 100%)" offset="0.699219"/><stop stop-opacity="1" stop-color="rgb(20.881653%, 40.242004%, 100%)" offset="0.703125"/><stop stop-opacity="1" stop-color="rgb(20.947266%, 40.031433%, 100%)" offset="0.707031"/><stop stop-opacity="1" stop-color="rgb(21.014404%, 39.822388%, 100%)" offset="0.710938"/><stop stop-opacity="1" stop-color="rgb(21.080017%, 39.611816%, 100%)" offset="0.714844"/><stop stop-opacity="1" stop-color="rgb(21.14563%, 39.402771%, 100%)" offset="0.71875"/><stop stop-opacity="1" stop-color="rgb(21.211243%, 39.1922%, 100%)" offset="0.722656"/><stop stop-opacity="1" stop-color="rgb(21.278381%, 38.983154%, 100%)" offset="0.726562"/><stop stop-opacity="1" stop-color="rgb(21.343994%, 38.772583%, 100%)" offset="0.730469"/><stop stop-opacity="1" stop-color="rgb(21.409607%, 38.563538%, 100%)" offset="0.734375"/><stop stop-opacity="1" stop-color="rgb(21.47522%, 38.352966%, 100%)" offset="0.738281"/><stop stop-opacity="1" stop-color="rgb(21.542358%, 38.143921%, 100%)" offset="0.742188"/><stop stop-opacity="1" stop-color="rgb(21.607971%, 37.93335%, 100%)" offset="0.746094"/><stop stop-opacity="1" stop-color="rgb(21.673584%, 37.724304%, 100%)" offset="0.75"/><stop stop-opacity="1" stop-color="rgb(21.739197%, 37.513733%, 100%)" offset="0.753906"/><stop stop-opacity="1" stop-color="rgb(21.806335%, 37.304688%, 100%)" offset="0.757812"/><stop stop-opacity="1" stop-color="rgb(21.871948%, 37.094116%, 100%)" offset="0.761719"/><stop stop-opacity="1" stop-color="rgb(21.937561%, 36.885071%, 100%)" offset="0.765625"/><stop stop-opacity="1" stop-color="rgb(22.003174%, 36.6745%, 100%)" offset="0.769531"/><stop stop-opacity="1" stop-color="rgb(22.070312%, 36.465454%, 100%)" offset="0.773438"/><stop stop-opacity="1" stop-color="rgb(22.135925%, 36.254883%, 100%)" offset="0.777344"/><stop stop-opacity="1" stop-color="rgb(22.203064%, 36.045837%, 100%)" offset="0.78125"/><stop stop-opacity="1" stop-color="rgb(22.268677%, 35.835266%, 100%)" offset="0.785156"/><stop stop-opacity="1" stop-color="rgb(22.33429%, 35.626221%, 100%)" offset="0.789062"/><stop stop-opacity="1" stop-color="rgb(22.399902%, 35.415649%, 100%)" offset="0.792969"/><stop stop-opacity="1" stop-color="rgb(22.467041%, 35.206604%, 100%)" offset="0.796875"/><stop stop-opacity="1" stop-color="rgb(22.532654%, 34.996033%, 100%)" offset="0.800781"/><stop stop-opacity="1" stop-color="rgb(22.598267%, 34.786987%, 100%)" offset="0.804688"/><stop stop-opacity="1" stop-color="rgb(22.663879%, 34.576416%, 100%)" offset="0.808594"/><stop stop-opacity="1" stop-color="rgb(22.731018%, 34.367371%, 100%)" offset="0.8125"/><stop stop-opacity="1" stop-color="rgb(22.796631%, 34.156799%, 100%)" offset="0.816406"/><stop stop-opacity="1" stop-color="rgb(22.862244%, 33.947754%, 100%)" offset="0.820312"/><stop stop-opacity="1" stop-color="rgb(22.927856%, 33.738708%, 100%)" offset="0.824219"/><stop stop-opacity="1" stop-color="rgb(22.994995%, 33.529663%, 100%)" offset="0.828125"/><stop stop-opacity="1" stop-color="rgb(23.060608%, 33.319092%, 100%)" offset="0.832031"/><stop stop-opacity="1" stop-color="rgb(23.126221%, 33.110046%, 100%)" offset="0.835938"/><stop stop-opacity="1" stop-color="rgb(23.191833%, 32.899475%, 100%)" offset="0.839844"/><stop stop-opacity="1" stop-color="rgb(23.258972%, 32.69043%, 100%)" offset="0.84375"/><stop stop-opacity="1" stop-color="rgb(23.324585%, 32.479858%, 100%)" offset="0.847656"/><stop stop-opacity="1" stop-color="rgb(23.390198%, 32.270813%, 100%)" offset="0.851562"/><stop stop-opacity="1" stop-color="rgb(23.455811%, 32.060242%, 100%)" offset="0.855469"/><stop stop-opacity="1" stop-color="rgb(23.522949%, 31.851196%, 100%)" offset="0.859375"/><stop stop-opacity="1" stop-color="rgb(23.588562%, 31.640625%, 100%)" offset="0.863281"/><stop stop-opacity="1" stop-color="rgb(23.654175%, 31.43158%, 100%)" offset="0.867188"/><stop stop-opacity="1" stop-color="rgb(23.719788%, 31.221008%, 100%)" offset="0.871094"/><stop stop-opacity="1" stop-color="rgb(23.786926%, 31.011963%, 100%)" offset="0.875"/><stop stop-opacity="1" stop-color="rgb(23.852539%, 30.801392%, 100%)" offset="0.878906"/><stop stop-opacity="1" stop-color="rgb(23.918152%, 30.592346%, 100%)" offset="0.882812"/><stop stop-opacity="1" stop-color="rgb(23.983765%, 30.381775%, 100%)" offset="0.886719"/><stop stop-opacity="1" stop-color="rgb(24.050903%, 30.172729%, 100%)" offset="0.890625"/><stop stop-opacity="1" stop-color="rgb(24.116516%, 29.962158%, 100%)" offset="0.894531"/><stop stop-opacity="1" stop-color="rgb(24.182129%, 29.753113%, 100%)" offset="0.898438"/><stop stop-opacity="1" stop-color="rgb(24.247742%, 29.542542%, 100%)" offset="0.902344"/><stop stop-opacity="1" stop-color="rgb(24.31488%, 29.333496%, 100%)" offset="0.90625"/><stop stop-opacity="1" stop-color="rgb(24.380493%, 29.122925%, 100%)" offset="0.910156"/><stop stop-opacity="1" stop-color="rgb(24.447632%, 28.913879%, 100%)" offset="0.914062"/><stop stop-opacity="1" stop-color="rgb(24.513245%, 28.703308%, 100%)" offset="0.917969"/><stop stop-opacity="1" stop-color="rgb(24.578857%, 28.494263%, 100%)" offset="0.921875"/><stop stop-opacity="1" stop-color="rgb(24.64447%, 28.283691%, 100%)" offset="0.925781"/><stop stop-opacity="1" stop-color="rgb(24.711609%, 28.074646%, 100%)" offset="0.929688"/><stop stop-opacity="1" stop-color="rgb(24.777222%, 27.864075%, 100%)" offset="0.933594"/><stop stop-opacity="1" stop-color="rgb(24.842834%, 27.655029%, 100%)" offset="0.9375"/><stop stop-opacity="1" stop-color="rgb(24.908447%, 27.444458%, 100%)" offset="0.941406"/><stop stop-opacity="1" stop-color="rgb(24.975586%, 27.235413%, 100%)" offset="0.945312"/><stop stop-opacity="1" stop-color="rgb(25.041199%, 27.024841%, 100%)" offset="0.949219"/><stop stop-opacity="1" stop-color="rgb(25.106812%, 26.815796%, 100%)" offset="0.953125"/><stop stop-opacity="1" stop-color="rgb(25.172424%, 26.605225%, 100%)" offset="0.957031"/><stop stop-opacity="1" stop-color="rgb(25.239563%, 26.396179%, 100%)" offset="0.960938"/><stop stop-opacity="1" stop-color="rgb(25.305176%, 26.187134%, 100%)" offset="0.964844"/><stop stop-opacity="1" stop-color="rgb(25.370789%, 25.978088%, 100%)" offset="0.96875"/><stop stop-opacity="1" stop-color="rgb(25.436401%, 25.767517%, 100%)" offset="0.972656"/><stop stop-opacity="1" stop-color="rgb(25.50354%, 25.558472%, 100%)" offset="0.976562"/><stop stop-opacity="1" stop-color="rgb(25.569153%, 25.3479%, 100%)" offset="0.980469"/><stop stop-opacity="1" stop-color="rgb(25.634766%, 25.138855%, 100%)" offset="0.984375"/><stop stop-opacity="1" stop-color="rgb(25.700378%, 24.928284%, 100%)" offset="0.988281"/><stop stop-opacity="1" stop-color="rgb(25.767517%, 24.719238%, 100%)" offset="0.992188"/><stop stop-opacity="1" stop-color="rgb(25.83313%, 24.508667%, 100%)" offset="0.996094"/><stop stop-opacity="1" stop-color="rgb(25.898743%, 24.299622%, 100%)" offset="1"/></linearGradient><clipPath id="f2e0dd3240"><rect x="0" width="328" y="0" height="328"/></clipPath></defs><g mask="url(#9145b9d7f2)"><g transform="matrix(1, 0, 0, 1, 23, 19)"><g clip-path="url(#f2e0dd3240)"><g clip-path="url(#0a89f78c51)"><g clip-path="url(#97a3d9f4bc)"><path fill="url(#29db610713)" d="M 0.511719 0.355469 L 0.511719 327.605469 L 327.761719 327.605469 L 327.761719 0.355469 Z M 0.511719 0.355469 " fill-rule="nonzero"/></g></g></g></g></g><g fill="#36d7ff" fill-opacity="1"><g transform="translate(104.843976, 253.09288)"><g><path d="M 25.28125 -62.3125 C 29.84375 -62.3125 33.804688 -61.664062 37.171875 -60.375 C 40.535156 -59.09375 43.59375 -57.132812 46.34375 -54.5 L 39.671875 -46.6875 C 35.515625 -50.082031 31.066406 -51.78125 26.328125 -51.78125 C 23.816406 -51.78125 21.828125 -51.265625 20.359375 -50.234375 C 18.898438 -49.210938 18.171875 -47.738281 18.171875 -45.8125 C 18.171875 -44.46875 18.488281 -43.367188 19.125 -42.515625 C 19.769531 -41.671875 20.910156 -40.867188 22.546875 -40.109375 C 24.191406 -39.347656 26.648438 -38.441406 29.921875 -37.390625 C 36.128906 -35.398438 40.695312 -32.957031 43.625 -30.0625 C 46.550781 -27.164062 48.015625 -23.054688 48.015625 -17.734375 C 48.015625 -13.929688 47.046875 -10.578125 45.109375 -7.671875 C 43.179688 -4.773438 40.398438 -2.523438 36.765625 -0.921875 C 33.140625 0.679688 28.84375 1.484375 23.875 1.484375 C 18.894531 1.484375 14.488281 0.695312 10.65625 -0.875 C 6.832031 -2.457031 3.546875 -4.566406 0.796875 -7.203125 L 8.078125 -15.1875 C 10.410156 -13.195312 12.820312 -11.703125 15.3125 -10.703125 C 17.800781 -9.710938 20.507812 -9.21875 23.4375 -9.21875 C 26.414062 -9.21875 28.769531 -9.875 30.5 -11.1875 C 32.226562 -12.507812 33.09375 -14.335938 33.09375 -16.671875 C 33.09375 -18.191406 32.769531 -19.460938 32.125 -20.484375 C 31.476562 -21.515625 30.363281 -22.4375 28.78125 -23.25 C 27.207031 -24.070312 24.925781 -24.953125 21.9375 -25.890625 C 15.207031 -27.941406 10.421875 -30.457031 7.578125 -33.4375 C 4.742188 -36.425781 3.328125 -40.203125 3.328125 -44.765625 C 3.328125 -48.273438 4.265625 -51.359375 6.140625 -54.015625 C 8.015625 -56.679688 10.617188 -58.726562 13.953125 -60.15625 C 17.285156 -61.59375 21.0625 -62.3125 25.28125 -62.3125 Z M 25.28125 -62.3125 "/></g></g></g><g fill="#36d7ff" fill-opacity="1"><g transform="translate(155.041976, 253.09288)"><g><path d="M 25.625 -48.09375 C 32.757812 -48.09375 38.347656 -45.910156 42.390625 -41.546875 C 46.429688 -37.191406 48.453125 -31.097656 48.453125 -23.265625 C 48.453125 -18.285156 47.53125 -13.9375 45.6875 -10.21875 C 43.84375 -6.507812 41.207031 -3.628906 37.78125 -1.578125 C 34.363281 0.460938 30.3125 1.484375 25.625 1.484375 C 18.550781 1.484375 12.976562 -0.691406 8.90625 -5.046875 C 4.84375 -9.398438 2.8125 -15.5 2.8125 -23.34375 C 2.8125 -28.320312 3.734375 -32.664062 5.578125 -36.375 C 7.421875 -40.09375 10.050781 -42.972656 13.46875 -45.015625 C 16.894531 -47.066406 20.945312 -48.09375 25.625 -48.09375 Z M 25.625 -37.921875 C 22.820312 -37.921875 20.71875 -36.734375 19.3125 -34.359375 C 17.90625 -31.992188 17.203125 -28.320312 17.203125 -23.34375 C 17.203125 -18.25 17.890625 -14.53125 19.265625 -12.1875 C 20.640625 -9.851562 22.757812 -8.6875 25.625 -8.6875 C 28.4375 -8.6875 30.539062 -9.867188 31.9375 -12.234375 C 33.34375 -14.609375 34.046875 -18.285156 34.046875 -23.265625 C 34.046875 -28.347656 33.359375 -32.0625 31.984375 -34.40625 C 30.609375 -36.75 28.488281 -37.921875 25.625 -37.921875 Z M 25.625 -37.921875 "/></g></g></g><g fill="#36d7ff" fill-opacity="1"><g transform="translate(206.293086, 253.09288)"><g><path d="M 26.765625 -56.34375 C 24.773438 -56.34375 23.34375 -55.875 22.46875 -54.9375 C 21.59375 -54 21.15625 -52.421875 21.15625 -50.203125 L 21.15625 -46.609375 L 32.125 -46.609375 L 30.625 -36.953125 L 21.15625 -36.953125 L 21.15625 0 L 7.28125 0 L 7.28125 -36.953125 L 0.265625 -36.953125 L 0.265625 -46.609375 L 7.28125 -46.609375 L 7.28125 -50.734375 C 7.28125 -55.410156 8.816406 -59.222656 11.890625 -62.171875 C 14.960938 -65.128906 19.363281 -66.609375 25.09375 -66.609375 C 29.71875 -66.609375 33.960938 -65.613281 37.828125 -63.625 L 34.046875 -54.59375 C 31.710938 -55.757812 29.285156 -56.34375 26.765625 -56.34375 Z M 26.765625 -56.34375 "/></g></g></g><g fill="#36d7ff" fill-opacity="1"><g transform="translate(237.535188, 253.09288)"><g><path d="M 34.671875 -2.1875 C 32.972656 -1.019531 30.992188 -0.117188 28.734375 0.515625 C 26.484375 1.160156 24.25 1.484375 22.03125 1.484375 C 11.851562 1.429688 6.765625 -4.179688 6.765625 -15.359375 L 6.765625 -36.953125 L 0.171875 -36.953125 L 0.171875 -46.609375 L 6.765625 -46.609375 L 6.765625 -56.703125 L 20.625 -58.28125 L 20.625 -46.609375 L 31.328125 -46.609375 L 29.84375 -36.953125 L 20.625 -36.953125 L 20.625 -15.53125 C 20.625 -13.363281 20.972656 -11.8125 21.671875 -10.875 C 22.378906 -9.945312 23.492188 -9.484375 25.015625 -9.484375 C 26.597656 -9.484375 28.265625 -9.976562 30.015625 -10.96875 Z M 34.671875 -2.1875 "/></g></g></g><g fill="#00042d" fill-opacity="1"><g transform="translate(97.43179, 177.929873)"><g><path d="M 24.023438 -19.554688 L 24.023438 -32.050781 L 40.257812 -32.050781 C 41.648438 -32.050781 42.371094 -32.835938 42.371094 -34.464844 L 42.371094 -49.132812 C 42.371094 -50.820312 41.527344 -51.605469 40.257812 -51.605469 L 24.023438 -51.605469 L 24.023438 -63.917969 L 44.726562 -63.917969 C 45.992188 -63.917969 46.476562 -64.765625 46.476562 -66.394531 L 46.476562 -81.0625 C 46.476562 -82.691406 45.992188 -83.597656 44.726562 -83.597656 L 4.585938 -83.597656 C 3.136719 -83.597656 2.292969 -82.691406 2.292969 -81.0625 L 2.292969 -2.476562 C 2.292969 -0.84375 3.078125 0 4.585938 0 L 45.207031 0 C 46.355469 0 47.078125 -0.785156 47.078125 -2.355469 L 47.078125 -17.203125 C 47.078125 -18.710938 46.355469 -19.554688 45.207031 -19.554688 Z M 24.023438 -19.554688 "/></g></g></g><g fill="#00042d" fill-opacity="1"><g transform="translate(144.872615, 177.929873)"><g><path d="M 49.375 -62.109375 C 49.375 -73.152344 42.976562 -84.925781 26.074219 -84.925781 C 11.527344 -84.925781 1.449219 -75.449219 1.449219 -62.589844 L 1.449219 -21.003906 C 1.449219 -6.457031 12.976562 1.386719 26.074219 1.386719 C 39.234375 1.386719 49.734375 -6.457031 49.734375 -21.003906 L 49.734375 -31.023438 C 49.734375 -32.835938 49.191406 -33.257812 47.503906 -33.257812 L 31.386719 -33.257812 C 29.816406 -33.257812 29.453125 -32.652344 29.453125 -30.84375 L 29.453125 -22.273438 C 29.453125 -20.28125 29.09375 -18.226562 26.253906 -18.226562 C 23.78125 -18.226562 23.175781 -20.28125 23.175781 -22.273438 L 23.175781 -61.625 C 23.175781 -63.558594 24.144531 -65.367188 26.253906 -65.367188 C 28.550781 -65.367188 29.152344 -63.015625 29.152344 -61.445312 L 29.152344 -54.925781 C 29.152344 -53.234375 29.636719 -52.453125 31.144531 -52.453125 L 47.199219 -52.453125 C 48.949219 -52.453125 49.375 -53.296875 49.375 -55.289062 Z M 49.375 -62.109375 "/></g></g></g><g fill="#00042d" fill-opacity="1"><g transform="translate(195.753806, 177.929873)"><g><path d="M 57.28125 -2.535156 C 57.28125 -1.207031 58.183594 0 59.390625 0 L 76.894531 0 C 78.285156 0 79.007812 -1.265625 79.007812 -2.535156 L 79.007812 -62.589844 C 79.007812 -75.023438 67.421875 -84.984375 54.324219 -84.984375 C 49.3125 -84.984375 44.484375 -83.535156 40.5 -81 C 36.457031 -83.535156 31.6875 -84.984375 26.679688 -84.984375 C 13.582031 -84.984375 2.050781 -75.023438 2.050781 -62.589844 L 2.050781 -2.535156 C 2.050781 -1.265625 2.777344 0 3.683594 0 L 21.851562 0 C 23.417969 0 23.78125 -1.148438 23.78125 -2.535156 L 23.78125 -61.324219 C 23.78125 -63.316406 24.382812 -65.367188 26.738281 -65.367188 C 28.910156 -65.367188 29.515625 -63.617188 29.636719 -61.746094 L 29.636719 -2.535156 C 29.636719 -1.265625 30.421875 0 31.324219 0 L 49.492188 0 C 51.0625 0 51.363281 -1.148438 51.363281 -2.535156 L 51.363281 -61.324219 C 51.363281 -63.316406 52.027344 -65.367188 54.382812 -65.367188 C 56.738281 -65.367188 57.28125 -63.316406 57.28125 -61.324219 Z M 57.28125 -2.535156 "/></g></g></g></svg>